<?xml version="1.0" encoding="UTF-8"?>
<svg version="1.1" xmlns="http://www.w3.org/2000/svg" width="192" height="192">
<path d="M0 0 C0.91504303 -0.00570007 1.83008606 -0.01140015 2.77285767 -0.01727295 C4.70061106 -0.02665574 6.62838002 -0.03322991 8.55615234 -0.03710938 C11.43487339 -0.04673559 14.31285439 -0.07779137 17.19140625 -0.109375 C38.49805846 -0.23148303 61.1893462 1.46482127 79.1015625 14.203125 C80.05095703 14.87794922 80.05095703 14.87794922 81.01953125 15.56640625 C95.28936047 26.74916425 99.84892033 45.55818286 102.01782227 62.71850586 C105.4175408 93.07728856 107.20324517 133.12992243 87.96484375 159.0859375 C74.30613651 175.05685173 54.64365671 179.89327399 34.44921875 181.80078125 C27.15136164 182.34494527 19.85415382 182.40229095 12.5390625 182.390625 C11.83635223 182.39002075 11.13364197 182.3894165 10.40963745 182.38879395 C-13.88761453 182.33223658 -42.35897893 181.37983263 -60.94140625 163.41796875 C-75.46305483 146.98328862 -78.99878365 124.38834362 -79.1015625 103.1484375 C-79.10726257 102.2074118 -79.11296265 101.26638611 -79.11883545 100.29684448 C-79.12823051 98.31183983 -79.1347974 96.32681998 -79.13867188 94.34179688 C-79.14829921 91.37080025 -79.1793434 88.40052009 -79.2109375 85.4296875 C-79.34049664 62.00424757 -77.1568335 36.25158217 -60.28125 18.45703125 C-56.75956461 15.12586327 -53.13267231 12.54921517 -48.8984375 10.203125 C-48.11339844 9.76355469 -47.32835938 9.32398438 -46.51953125 8.87109375 C-32.34378962 1.7074747 -15.66623372 0.07850511 0 0 Z " fill="#060605" transform="translate(83.8984375,7.796875)"/>
<path d="M0 0 C4.53026775 2.40065471 8.10452756 5.13888408 10 10 C11.57757461 17.39649735 9.44803756 22.738201 6 29.125 C2.07244359 36.02084028 2.07244359 36.02084028 1.296875 43.73046875 C2.38096801 47.22968009 3.99478977 50.41014117 5.72143555 53.63525391 C9.16587401 60.08733304 12.01966686 66.77020373 14.875 73.5 C15.36331299 74.63429443 15.85162598 75.76858887 16.35473633 76.93725586 C17.04152466 78.56159546 17.04152466 78.56159546 17.7421875 80.21875 C18.1532373 81.18748047 18.56428711 82.15621094 18.98779297 83.15429688 C20.03637017 86.10225052 20.57904443 88.90497429 21 92 C24.35433109 91.05066101 27.69246505 90.10251165 31 89 C32.15595049 76.18179349 26.67901661 66.13011348 21.02685547 55.02832031 C16.27894216 45.68543453 11.79353288 36.4024907 10 26 C11.65 25.34 13.3 24.68 15 24 C18.94558813 28.36514161 21.0605319 33.10601106 23.375 38.4375 C23.76929199 39.33202881 24.16358398 40.22655762 24.56982422 41.14819336 C25.35929807 42.94328734 26.14534045 44.73989487 26.92773438 46.53808594 C27.8327049 48.61589166 28.74868033 50.68806961 29.671875 52.7578125 C32.58864086 59.39110261 35.28259834 66.10928877 37.875 72.875 C38.1858252 73.66011963 38.49665039 74.44523926 38.81689453 75.25415039 C40.74742397 80.40168261 41.50245499 84.49664004 41 90 C38.31357699 94.06801198 35.54244819 97.14172574 31 99 C26.62125006 99.57531021 23.09661434 99.45692264 19 97.75 C16.81232941 95.83578823 16.29511567 94.85278483 16 92 C15.01 92 14.02 92 13 92 C12.55011719 90.82308594 12.10023437 89.64617187 11.63671875 88.43359375 C7.45473894 77.66745539 2.87774929 67.23424803 -2.40551758 56.95678711 C-6.19285076 49.36527018 -8.30787228 43.32629799 -5.6015625 35.03515625 C-4.96221915 33.36998124 -4.30303498 31.71229886 -3.625 30.0625 C-3.295 29.21365234 -2.965 28.36480469 -2.625 27.49023438 C-1.4988273 24.61300046 -0.38218736 21.76437472 1 19 C1.22467831 17.46331135 1.40796805 15.92031946 1.5625 14.375 C1.706875 12.93125 1.85125 11.4875 2 10 C-2.95 9.01 -2.95 9.01 -8 8 C-8.23589844 8.63035156 -8.47179687 9.26070312 -8.71484375 9.91015625 C-10.11267078 13.27088932 -11.6808392 16.51680149 -13.27392578 19.78833008 C-17.79813833 29.0896242 -21.90191916 38.47649521 -25.72900391 48.08398438 C-28.31454871 54.50692493 -31.18265361 60.70457338 -34.43798828 66.81567383 C-37.4540581 72.55030998 -39.30351593 77.92166844 -39.125 84.4375 C-39.09792969 85.73494141 -39.09792969 85.73494141 -39.0703125 87.05859375 C-39.04710937 87.69925781 -39.02390625 88.33992188 -39 89 C-36.36 89.33 -33.72 89.66 -31 90 C-25.95989525 81.03236682 -21.55543671 71.98011405 -17.703125 62.4362793 C-16.06682925 58.40537336 -14.38933504 54.66119646 -12 51 C-10.35 51.33 -8.7 51.66 -7 52 C-6.39739455 58.54890331 -8.42693388 62.97609842 -11.25 68.8125 C-12.04900543 70.50550661 -12.84588421 72.19951852 -13.640625 73.89453125 C-14.23327148 75.14967529 -14.23327148 75.14967529 -14.83789062 76.43017578 C-16.01936491 79.0428225 -17.07438985 81.68175712 -18.109375 84.35546875 C-19.42933996 87.71229887 -20.76568235 90.63424475 -23 93.5 C-23.474375 94.1290625 -23.94875 94.758125 -24.4375 95.40625 C-27.1838991 98.20757708 -29.42910354 98.94614184 -33.3125 99.3125 C-38.74875836 98.85180014 -42.53571806 97.50281567 -46.375 93.5625 C-49.31385244 88.92815576 -49.49271971 84.43054651 -49 79 C-47.75 75.640625 -47.75 75.640625 -46 72.25 C-43.02493162 66.29451926 -40.46455716 60.27052935 -38.0625 54.0625 C-35.34826012 47.11741321 -32.35750644 40.43916916 -28.9387207 33.81469727 C-26.52247259 29.11633769 -24.33972329 24.35194933 -22.25 19.5 C-21.95802734 18.82775391 -21.66605469 18.15550781 -21.36523438 17.46289062 C-20.19416852 14.76646416 -19.02876786 12.06823534 -17.88671875 9.359375 C-14.3517858 1.50396845 -8.42184975 -1.9030824 0 0 Z " fill="#F18F3E" transform="translate(99,43)"/>
<path d="M0 0 C3.46941546 0.45822468 6.67395049 0.89131683 10 2 C10.81124878 9.70686337 8.50960067 15.50746942 5.5078125 22.44921875 C2.48845523 29.30372257 2.48845523 29.30372257 2.3125 36.625 C2.46138672 37.72714844 2.46138672 37.72714844 2.61328125 38.8515625 C2.98762173 40.93123182 3.45941508 42.95779031 4 45 C3.34 45 2.68 45 2 45 C1.67 45.99 1.34 46.98 1 48 C0.505 46.02 0.505 46.02 0 44 C-1.32 43.67 -2.64 43.34 -4 43 C-4.42104004 44.06408081 -4.42104004 44.06408081 -4.85058594 45.1496582 C-6.88844646 50.20318871 -9.07663786 55.19109776 -11.25 60.1875 C-11.94802734 61.81655273 -11.94802734 61.81655273 -12.66015625 63.47851562 C-15.64319335 70.31977841 -18.97969142 76.71053308 -23 83 C-30.875 82.125 -30.875 82.125 -32 81 C-33.45130439 69.65127551 -28.65793437 59.99807658 -23.55883789 50.19555664 C-19.1945972 41.6728335 -15.54393093 32.81964446 -11.83227539 23.99853516 C-8.32323159 15.71884912 -4.40102119 7.83455878 0 0 Z " fill="#0E0C0A" transform="translate(91,51)"/>
<path d="M0 0 C0.96322174 -0.00570007 1.92644348 -0.01140015 2.91885376 -0.01727295 C4.95093711 -0.02666982 6.98303533 -0.03323563 9.01513672 -0.03710938 C12.05855449 -0.04673892 15.10127357 -0.07778238 18.14453125 -0.109375 C36.09303134 -0.20716833 59.3927662 -0.25299688 73.7265625 12.203125 C70.03431236 11.39174163 66.57982028 10.07831518 63.0390625 8.765625 C57.64189501 6.81543461 52.3904922 5.15017818 46.7265625 4.203125 C45.25703125 3.92662109 45.25703125 3.92662109 43.7578125 3.64453125 C16.29451064 -0.8399043 -20.53893222 -1.4059077 -45.3828125 12.25 C-47.2734375 13.203125 -47.2734375 13.203125 -49.2734375 13.203125 C-49.51835938 13.77546875 -49.76328125 14.3478125 -50.015625 14.9375 C-51.48453849 17.58336902 -53.22691994 19.35165639 -55.3984375 21.453125 C-56.12289062 22.15953125 -56.84734375 22.8659375 -57.59375 23.59375 C-58.14804687 24.12484375 -58.70234375 24.6559375 -59.2734375 25.203125 C-59.6034375 24.543125 -59.9334375 23.883125 -60.2734375 23.203125 C-47.77383059 7.81298399 -32.21690425 2.52484927 -12.78855896 0.41876221 C-8.52770916 0.05345271 -4.2744565 0.02018125 0 0 Z " fill="#333333" transform="translate(83.2734375,11.796875)"/>
<path d="M0 0 C0.99 0.33 1.98 0.66 3 1 C-0.465 3.97 -0.465 3.97 -4 7 C-2.92598892 4.08482708 -2.22189824 2.22189824 0 0 Z " fill="#242424" transform="translate(27,30)"/>
</svg>
